<svg width="21" height="24" viewBox="0 0 21 24" fill="none" xmlns="http://www.w3.org/2000/svg">
<g clip-path="url(#clip0_1112_778)">
<path d="M21.0001 23.4C21.0001 23.7314 20.7315 24 20.4001 24C20.0687 24 19.8001 23.7314 19.8001 23.4C19.8001 18.4294 15.7707 14.4 10.8001 14.4C5.82953 14.4 1.8001 18.4294 1.8001 23.4C1.8001 23.7314 1.53147 24 1.2001 24C0.868727 24 0.600098 23.7314 0.600098 23.4C0.600098 17.7667 5.16679 13.2 10.8001 13.2C16.4334 13.2 21.0001 17.7667 21.0001 23.4ZM10.8001 12C7.48639 12 4.8001 9.31371 4.8001 6C4.8001 2.68629 7.48639 0 10.8001 0C14.1138 0 16.8001 2.68629 16.8001 6C16.8001 9.31371 14.1138 12 10.8001 12ZM10.8001 10.8C13.4511 10.8 15.6001 8.65097 15.6001 6C15.6001 3.34903 13.4511 1.2 10.8001 1.2C8.14913 1.2 6.0001 3.34903 6.0001 6C6.0001 8.65097 8.14913 10.8 10.8001 10.8Z" fill="#4D4D4D"/>
</g>
<defs>
<clipPath id="clip0_1112_778">
<rect width="20.4" height="24" fill="white" transform="translate(0.600098)"/>
</clipPath>
</defs>
</svg>
