<svg width="24" height="26" viewBox="0 0 24 26" fill="none" xmlns="http://www.w3.org/2000/svg">
<path d="M11.839 23.9948L11.6555 23.9971L11.2389 23.9882V23.9866H11.1639C11.1191 23.9866 11.0749 23.9928 11.0325 24.0047L2.96063 24.1031L4.99988 6.96686H19.004L21.0433 24.1032L11.9601 24.0036L11.8455 23.995L11.8455 23.9948L11.839 23.9948ZM2.35946 25.0694L2.3594 25.07L2.36879 25.0699L11.5181 24.9643H11.5198L21.6352 25.0699L21.6352 25.0704L21.6444 25.0694C21.7735 25.0547 21.8914 24.9894 21.9723 24.8879C22.0531 24.7863 22.0904 24.6568 22.0758 24.5277L22.0758 24.5273L19.9197 6.41369L19.8452 6.42219L19.9197 6.41332L19.9197 6.41337C19.906 6.29468 19.8493 6.18513 19.7601 6.10557C19.6709 6.02594 19.5555 5.98191 19.4359 5.98188H4.56797H4.56796C4.44837 5.98191 4.33298 6.02594 4.24377 6.10557C4.15461 6.18516 4.09783 6.29475 4.08423 6.41348C4.08423 6.41355 4.08422 6.41362 4.08421 6.41369L1.92815 24.5273L1.9281 24.5277C1.91351 24.6568 1.95076 24.7863 2.03165 24.8879C2.11254 24.9894 2.23045 25.0547 2.35946 25.0694Z" fill="#4D4D4D" stroke="#4D4D4D" stroke-width="0.15"/>
<mask id="path-2-outside-1_1401_3454" maskUnits="userSpaceOnUse" x="6.77783" y="0" width="10" height="6" fill="black">
<rect fill="white" x="6.77783" width="10" height="6"/>
<path d="M8.16043 5.44181C8.26931 5.44937 8.37674 5.41341 8.45913 5.34183C8.54152 5.27025 8.59214 5.1689 8.59989 5.06003V5.06003C8.77842 2.1184 12.4671 0.731355 14.5271 2.83802C15.1205 3.43035 15.4787 4.21799 15.5351 5.05454C15.5436 5.16336 15.5943 5.26455 15.6764 5.33642C15.7586 5.40829 15.8656 5.44514 15.9746 5.43907C16.0286 5.43593 16.0815 5.4221 16.1301 5.3984C16.1787 5.37469 16.2222 5.34157 16.258 5.30096C16.2937 5.26034 16.3211 5.21304 16.3384 5.16179C16.3558 5.11053 16.3628 5.05634 16.3591 5.00236C16.2896 3.96606 15.8466 2.99015 15.1121 2.25573C12.5633 -0.353561 7.99838 1.36583 7.77865 5.00236C7.77183 5.11106 7.80805 5.21809 7.87948 5.30032C7.95092 5.38255 8.05183 5.43337 8.16043 5.44181V5.44181Z"/>
</mask>
<path d="M8.16043 5.44181C8.26931 5.44937 8.37674 5.41341 8.45913 5.34183C8.54152 5.27025 8.59214 5.1689 8.59989 5.06003V5.06003C8.77842 2.1184 12.4671 0.731355 14.5271 2.83802C15.1205 3.43035 15.4787 4.21799 15.5351 5.05454C15.5436 5.16336 15.5943 5.26455 15.6764 5.33642C15.7586 5.40829 15.8656 5.44514 15.9746 5.43907C16.0286 5.43593 16.0815 5.4221 16.1301 5.3984C16.1787 5.37469 16.2222 5.34157 16.258 5.30096C16.2937 5.26034 16.3211 5.21304 16.3384 5.16179C16.3558 5.11053 16.3628 5.05634 16.3591 5.00236C16.2896 3.96606 15.8466 2.99015 15.1121 2.25573C12.5633 -0.353561 7.99838 1.36583 7.77865 5.00236C7.77183 5.11106 7.80805 5.21809 7.87948 5.30032C7.95092 5.38255 8.05183 5.43337 8.16043 5.44181V5.44181Z" fill="#4D4D4D"/>
<path d="M14.5271 2.83802L14.4198 2.94289L14.4211 2.94418L14.5271 2.83802ZM15.5351 5.05454L15.3854 5.06463L15.3856 5.06615L15.5351 5.05454ZM15.9746 5.43907L15.9829 5.58884L15.9833 5.58882L15.9746 5.43907ZM16.3591 5.00236L16.2094 5.01239L16.2095 5.01268L16.3591 5.00236ZM15.1121 2.25573L15.0048 2.36055L15.0061 2.3618L15.1121 2.25573ZM7.77865 5.00236L7.92835 5.01175L7.92837 5.0114L7.77865 5.00236ZM8.15005 5.59146C8.29857 5.60176 8.44511 5.5527 8.5575 5.45506L8.36075 5.22859C8.30836 5.27411 8.24004 5.29698 8.1708 5.29217L8.15005 5.59146ZM8.5575 5.45506C8.66989 5.35742 8.73895 5.21918 8.74951 5.07068L8.45026 5.04939C8.44534 5.11862 8.41315 5.18307 8.36075 5.22859L8.5575 5.45506ZM8.74961 5.06912C8.92033 2.25622 12.4516 0.930038 14.4199 2.94289L14.6343 2.73314C12.4826 0.532672 8.63651 1.98058 8.45016 5.05095L8.74961 5.06912ZM14.4211 2.94418C14.9888 3.51084 15.3315 4.26434 15.3855 5.06463L15.6848 5.04445C15.6259 4.17164 15.2522 3.34987 14.6331 2.73185L14.4211 2.94418ZM15.3856 5.06615C15.397 5.21407 15.466 5.35161 15.5777 5.44931L15.7752 5.22353C15.7226 5.17748 15.6901 5.11265 15.6847 5.04293L15.3856 5.06615ZM15.5777 5.44931C15.6893 5.547 15.8348 5.59709 15.9829 5.58884L15.9662 5.2893C15.8964 5.29319 15.8278 5.26958 15.7752 5.22353L15.5777 5.44931ZM15.9833 5.58882C16.0571 5.58452 16.1293 5.56563 16.1958 5.53324L16.0644 5.26356C16.0336 5.27858 16.0001 5.28733 15.9659 5.28932L15.9833 5.58882ZM16.1958 5.53324C16.2623 5.50084 16.3217 5.45559 16.3706 5.40008L16.1454 5.20183C16.1227 5.22756 16.0952 5.24854 16.0644 5.26356L16.1958 5.53324ZM16.3706 5.40008C16.4194 5.34458 16.4568 5.27994 16.4805 5.2099L16.1964 5.11367C16.1854 5.14614 16.168 5.1761 16.1454 5.20183L16.3706 5.40008ZM16.4805 5.2099C16.5042 5.13986 16.5138 5.06581 16.5087 4.99204L16.2095 5.01268C16.2118 5.04688 16.2074 5.0812 16.1964 5.11367L16.4805 5.2099ZM16.5088 4.99232C16.4368 3.91979 15.9783 2.90976 15.2182 2.14967L15.0061 2.3618C15.7148 3.07054 16.1424 4.01232 16.2094 5.01239L16.5088 4.99232ZM15.2194 2.15092C12.5788 -0.552327 7.85643 1.22806 7.62892 4.99331L7.92837 5.0114C8.14033 1.50359 12.5477 -0.154796 15.0048 2.36055L15.2194 2.15092ZM7.62894 4.99296C7.61965 5.14099 7.66897 5.28673 7.76624 5.3987L7.99272 5.20195C7.94712 5.14946 7.924 5.08114 7.92835 5.01175L7.62894 4.99296ZM7.76624 5.3987C7.86352 5.51066 8.00093 5.57987 8.1488 5.59136L8.17205 5.29227C8.10273 5.28688 8.03832 5.25443 7.99272 5.20195L7.76624 5.3987Z" fill="#4D4D4D" mask="url(#path-2-outside-1_1401_3454)"/>
</svg>
