<svg width="25" height="24" viewBox="0 0 25 24" fill="none" xmlns="http://www.w3.org/2000/svg">
<path d="M23.7854 22.2885L17.8233 16.3327C19.4491 14.4758 20.2895 12.0596 20.1669 9.59458C20.0444 7.12954 18.9684 4.80867 17.1664 3.12223C15.3643 1.4358 12.9773 0.515849 10.5096 0.556726C8.04182 0.597603 5.68659 1.5961 3.9414 3.3413C2.1962 5.0865 1.1977 7.44173 1.15682 9.90947C1.11595 12.3772 2.03589 14.7642 3.72233 16.5663C5.40877 18.3683 7.72964 19.4443 10.1947 19.5668C12.6597 19.6894 15.0759 18.849 16.9328 17.2232L22.8886 23.1853C22.9473 23.2445 23.0171 23.2915 23.0941 23.3236C23.1711 23.3556 23.2536 23.3721 23.337 23.3721C23.4204 23.3721 23.5029 23.3556 23.5799 23.3236C23.6568 23.2915 23.7267 23.2445 23.7854 23.1853C23.8446 23.1266 23.8916 23.0567 23.9237 22.9798C23.9557 22.9028 23.9722 22.8203 23.9722 22.7369C23.9722 22.6535 23.9557 22.571 23.9237 22.494C23.8916 22.417 23.8446 22.3472 23.7854 22.2885ZM2.49489 10.1053C2.49489 8.48143 2.97643 6.89401 3.87861 5.54379C4.78079 4.19358 6.0631 3.14121 7.56338 2.51978C9.06366 1.89834 10.7145 1.73575 12.3072 2.05255C13.8999 2.36936 15.3629 3.15133 16.5111 4.2996C17.6594 5.44786 18.4414 6.91084 18.7582 8.50352C19.075 10.0962 18.9124 11.7471 18.2909 13.2473C17.6695 14.7476 16.6172 16.0299 15.2669 16.9321C13.9167 17.8343 12.3293 18.3158 10.7054 18.3158C8.52785 18.3158 6.43947 17.4508 4.89969 15.911C3.35992 14.3713 2.49489 12.2829 2.49489 10.1053Z" fill="#4D4D4D"/>
</svg>
